<svg width="195" height="39" viewBox="0 0 195 39" fill="none" xmlns="http://www.w3.org/2000/svg">
<path fill-rule="evenodd" clip-rule="evenodd" d="M17.5593 6.03574C23.0457 6.03574 27.9028 8.72472 30.8828 12.8542L32.4979 8.30038C32.6451 7.88558 32.7647 7.58392 32.8587 7.14554C32.8783 7.05386 32.8954 6.96298 32.9101 6.87289C32.9555 6.59402 32.9775 6.32388 32.9775 6.06369C32.9775 5.62027 32.9108 5.2064 32.7863 4.82737C32.657 4.43324 32.4654 4.07713 32.222 3.76434C31.9779 3.45075 31.6803 3.17638 31.3394 2.94692C30.9973 2.7168 30.6114 2.53159 30.1915 2.39699C29.9255 2.31167 29.6441 2.24649 29.3502 2.20304C29.0596 2.16012 28.7565 2.13799 28.4433 2.13799H6.67524C6.36201 2.13799 6.05887 2.16012 5.76833 2.20304C5.47447 2.24649 5.19309 2.31167 4.92696 2.39699C4.5072 2.53159 4.12114 2.7168 3.77913 2.94692C3.43831 3.17638 3.14074 3.45075 2.8965 3.76434C2.65306 4.07713 2.46149 4.43324 2.33214 4.82737C2.2077 5.2064 2.14097 5.62027 2.14097 6.06369C2.14097 6.32388 2.16299 6.59402 2.20849 6.87289C2.22309 6.96298 2.24033 7.05386 2.25997 7.14554C2.35376 7.58392 2.47343 7.88558 2.62056 8.30038L4.2359 12.8551C7.21559 8.72498 12.0725 6.03574 17.5593 6.03574ZM32.3016 15.2159C33.3709 17.3915 33.9719 19.8384 33.9719 22.4255C33.9719 23.0412 33.9367 23.6487 33.8705 24.2469H31.7404C31.8164 23.6505 31.8557 23.0426 31.8557 22.4255C31.8557 14.5408 25.4549 8.14895 17.5593 8.14895C11.9098 8.14895 7.02693 11.4219 4.70527 16.172C8.7504 16.172 12.7954 16.172 16.8405 16.172V18.4509C11.7716 18.4509 6.7027 18.4509 1.63378 18.4509C1.91543 17.3219 2.31463 16.2393 2.81703 15.2166L2.47237 14.2754L0.628175 9.07566C0.509041 8.73982 0.385263 8.40822 0.28908 8.06483C0.207225 7.77271 0.143411 7.48628 0.0967122 7.20595C0.0314404 6.81341 0 6.43225 0 6.06369C0 5.37426 0.106664 4.72788 0.305663 4.13303C0.511959 3.5162 0.817887 2.95315 1.20713 2.45317C1.58244 1.97106 2.03444 1.55136 2.54812 1.20201C3.06578 0.849871 3.64633 0.569009 4.27464 0.367504C4.65101 0.246814 5.04331 0.154474 5.44794 0.0924723C5.84647 0.0313982 6.25668 0 6.67524 0H28.4433C28.8618 0 29.272 0.0313982 29.6705 0.0924723C30.0752 0.154474 30.4675 0.246814 30.844 0.367504C31.4722 0.569009 32.0527 0.849871 32.5704 1.20201C33.084 1.55136 33.536 1.97106 33.9114 2.45317C34.3006 2.95315 34.6065 3.5162 34.8128 4.13303C35.0118 4.72788 35.1185 5.37426 35.1185 6.06369C35.1185 6.43225 35.087 6.81341 35.0218 7.20595C34.9752 7.48628 34.9113 7.77271 34.8294 8.06483C34.7332 8.40822 34.6094 8.73982 34.4903 9.07566L32.6461 14.2754L32.3016 15.2159ZM32.2008 26.5258H33.4539C31.6312 33.5934 25.2058 38.8152 17.5593 38.8152C8.49489 38.8152 1.14677 31.4773 1.14677 22.4255C1.14677 21.8529 1.17609 21.2872 1.23366 20.7298H3.36375C3.29769 21.2858 3.26293 21.8515 3.26293 22.4255C3.26293 30.3102 9.66354 36.702 17.5593 36.702C23.1944 36.702 28.0669 33.4456 30.3954 28.7149C26.4222 28.7149 22.4489 28.7149 18.4756 28.7149V16.1361H20.8476V26.5258C24.632 26.5258 28.4163 26.5258 32.2008 26.5258ZM10.174 28.7149V24.0674H16.4811V21.8782H7.8021V28.7149H10.174Z" fill="#23AF8D"/>
<path fill-rule="evenodd" clip-rule="evenodd" d="M56.4674 26.8057V21.1838H64.0864V18.5355H56.4674V14.3896H64.5206V11.6328H53.6021V26.8057H56.4674Z" fill="black"/>
<path fill-rule="evenodd" clip-rule="evenodd" d="M67.4357 26.8043H70.2792V11.5879H67.4357V26.8043Z" fill="black"/>
<path fill-rule="evenodd" clip-rule="evenodd" d="M78.2957 26.8042H81.1608V14.1926H85.9799V11.5879C81.5735 11.5879 77.8616 11.5879 73.4767 11.5879V14.1926H78.2957V26.8042Z" fill="black"/>
<path fill-rule="evenodd" clip-rule="evenodd" d="M98.4025 21.023L90.9571 11.5879H88.6345V26.8042H91.4996V16.5442L99.4879 26.8042H101.268V11.5879H98.4025V21.023Z" fill="black"/>
<path fill-rule="evenodd" clip-rule="evenodd" d="M115.926 23.9824H107.396V20.5526H115.622V17.8828H107.396V14.3663H115.926V11.5879H104.552C104.552 16.6599 104.552 21.7465 104.552 26.8042H115.926V23.9824Z" fill="black"/>
<path fill-rule="evenodd" clip-rule="evenodd" d="M130.954 14.107C129.804 11.7628 127.351 11.0898 124.984 11.0898C122.184 11.1116 119.102 12.3922 119.102 15.5181C119.102 18.9261 121.967 19.7509 125.071 20.1199C127.09 20.3369 128.588 20.923 128.588 22.3556C128.588 24.0053 126.895 24.6349 125.093 24.6349C123.248 24.6349 121.49 23.8968 120.817 22.2254L118.429 23.4628C119.558 26.2412 121.946 27.1963 125.05 27.1963C128.436 27.1963 131.431 25.7418 131.431 22.3556C131.431 18.7306 128.479 17.9058 125.31 17.515C123.487 17.298 121.924 16.9289 121.924 15.6048C121.924 14.4761 122.944 13.5861 125.071 13.5861C126.721 13.5861 128.154 14.4109 128.675 15.2793L130.954 14.107Z" fill="black"/>
<path fill-rule="evenodd" clip-rule="evenodd" d="M146.003 14.107C144.853 11.7628 142.4 11.0898 140.034 11.0898C137.234 11.1116 134.151 12.3922 134.151 15.5181C134.151 18.9261 137.017 19.7509 140.121 20.1199C142.139 20.3369 143.637 20.923 143.637 22.3556C143.637 24.0053 141.944 24.6349 140.142 24.6349C138.297 24.6349 136.539 23.8968 135.866 22.2254L133.479 23.4628C134.607 26.2412 136.995 27.1963 140.099 27.1963C143.485 27.1963 146.481 25.7418 146.481 22.3556C146.481 18.7306 143.529 17.9058 140.359 17.515C138.536 17.298 136.973 16.9289 136.973 15.6048C136.973 14.4761 137.993 13.5861 140.121 13.5861C141.771 13.5861 143.203 14.4109 143.724 15.2793L146.003 14.107Z" fill="black"/>
<path fill-rule="evenodd" clip-rule="evenodd" d="M149.722 11.5879V26.8042H159.446V25.6972H150.894V11.5879H149.722Z" fill="black"/>
<path fill-rule="evenodd" clip-rule="evenodd" d="M162.637 26.8043H163.787V11.5879H162.637V26.8043Z" fill="black"/>
<path fill-rule="evenodd" clip-rule="evenodd" d="M168.106 11.5879V26.8042H169.278V14.2396L179.524 26.8042H179.98V11.5879H178.829V24.174L168.606 11.5879H168.106Z" fill="black"/>
<path fill-rule="evenodd" clip-rule="evenodd" d="M195 26.739L186.665 18.8812L194.306 11.6964V11.5879H192.895L185.514 18.5339V11.5879H184.342V26.8042H185.514V19.3154L193.524 26.8042H195V26.739Z" fill="black"/>
</svg>
